- 
http://www.Speed.Cd      fast  and The Hottest Private Tracker on the net

   signup is open now

Please Seed back to make the speed Faster!!!

------------------nfo--------------------------
-








































          
          
              
              
                    
                    
                    
                    

The.Help.2011.BRRip.XviD.AC3-SiC

Poster:
[img]http://img408.imageshack.us/img408/329/mv5bmtm5otmymjixov5bml5.jpg[/img]

IMDB Link: 
http://www.imdb.com/title/tt1454029/

Description:
An aspiring author during the civil rights movement of the 1960's decides to write a book detailing the African-American maid's point of view on the white families for which they work, and the hardships they go through on a daily basis. 

General
Complete name                    : The.Help.2011.BRRip.XviD.AC3-SiC.avi
Format                           : AVI
Format/Info                      : Audio Video Interleave
File size                        : 1.37 GiB
Duration                         : 2h 26mn
Overall bit rate                 : 1 337 Kbps

Video
ID                               : 0
Format                           : MPEG-4 Visual
Format profile                   : Advanced Simple@L5
Format settings, BVOP            : Yes
Format settings, QPel            : No
Format settings, GMC             : No warppoints
Format settings, Matrix          : Default (MPEG)
Muxing mode                      : Packed bitstream
Codec ID                         : XVID
Codec ID/Hint                    : XviD
Duration                         : 2h 26mn
Bit rate                         : 945 Kbps
Width                            : 720 pixels
Height                           : 384 pixels
Display aspect ratio             : 1.875
Frame rate                       : 23.976 fps
Color space                      : YUV
Chroma subsampling               : 4:2:0
Bit depth                        : 8 bits
Scan type                        : Progressive
Bits/(Pixel*Frame)               : 0.143
Stream size                      : 989 MiB (71%)
Writing library                  : XviD 64

Audio
ID                               : 1
Format                           : AC-3
Format/Info                      : Audio Coding 3
Mode extension                   : CM (complete main)
Codec ID                         : 2000
Duration                         : 2h 26mn
Bit rate mode                    : Constant
Bit rate                         : 384 Kbps
Channel(s)                       : 6 channels
Channel positions                : Front: L C R, Side: L R, LFE
Sampling rate                    : 48.0 KHz
Bit depth                        : 16 bits
Stream size                      : 402 MiB (29%)
Alignment                        : Aligned on interleaves
Interleave, duration             : 64 ms (1.53 video frames)
Interleave, preload duration     : 192 ms
Title                            : f-thehelp.720 - [2] English


Screenshots:
[IMG]http://img35.imageshack.us/img35/1932/snap1dvr.png[/IMG]
[IMG]http://img97.imageshack.us/img97/8526/snap2j.png[/IMG]
[IMG]http://img14.imageshack.us/img14/6035/snap3q.png[/IMG]
[IMG]http://img233.imageshack.us/img233/4499/snap4m.png[/IMG]
[IMG]http://img443.imageshack.us/img443/3180/snap5kd.png[/IMG]

Note: did my thing

Source:  720p Felony

Enjoy!

Respects to CM8, Rx, THC, ELEKTRI4KA, PA, YeFsTe, Box, MrRep and everyone in the struggle...